<svg width="63" height="90" viewBox="0 0 63 90" fill="none" xmlns="http://www.w3.org/2000/svg">
<path fill-rule="evenodd" clip-rule="evenodd" d="M45.0869 18.245H17.4619C16.3859 18.245 15.5139 17.373 15.5139 16.298C15.5139 15.221 16.3859 14.349 17.4619 14.349H17.9929C17.9929 9.172 20.9559 4.691 25.2779 2.5L26.3799 8.738C26.4649 9.233 26.8949 9.58 27.3809 9.58C27.4389 9.58 27.4989 9.575 27.5589 9.565C28.1129 9.467 28.4819 8.939 28.3839 8.385L27.1269 1.256C27.5989 0.502 28.4349 0 29.3899 0H33.1589C34.1149 0 34.9519 0.502 35.4229 1.257L34.1659 8.386C34.0669 8.941 34.4359 9.468 34.9909 9.566C35.0509 9.576 35.1099 9.581 35.1689 9.581C35.6539 9.581 36.0839 9.233 36.1709 8.739L37.2719 2.499C41.5919 4.69 44.5569 9.172 44.5569 14.348H45.0869C46.1629 14.348 47.0349 15.22 47.0349 16.297C47.0349 17.373 46.1629 18.245 45.0869 18.245ZM31.2748 34.938C25.3648 34.938 20.4808 28.532 19.6958 20.215H18.0898C18.9828 29.687 24.5438 36.985 31.2748 36.985C38.0038 36.985 43.5678 29.688 44.4608 20.215H42.8528C42.0678 28.532 37.1848 34.938 31.2748 34.938ZM41.8938 35.489C41.8248 38.679 37.0968 41.253 31.2748 41.253C25.4518 41.253 20.7248 38.679 20.6558 35.489C12.5358 36.232 6.02384 42.518 4.93384 50.531H57.6158C56.5258 42.518 50.0138 36.231 41.8938 35.489ZM55.1819 87.915H7.36793C6.79193 87.915 6.32593 88.382 6.32593 88.957C6.32593 89.533 6.79293 90 7.36793 90H55.1819C55.7569 90 56.2239 89.533 56.2239 88.957C56.2239 88.382 55.7569 87.915 55.1819 87.915ZM57.616 51.92H57.644C60.348 51.92 62.549 54.121 62.549 56.825V56.944L62.528 57.061L58.152 82.444C58.084 85.089 55.91 87.221 53.249 87.221H9.3C6.639 87.221 4.465 85.09 4.397 82.444L0.0209999 57.061L0 56.944V56.825C0 54.121 2.201 51.92 4.906 51.92H4.934H57.616ZM29.189 69.13C29.189 70.284 30.123 71.216 31.275 71.216C32.426 71.216 33.359 70.284 33.358 69.13C33.358 67.98 32.426 67.048 31.275 67.048C30.123 67.048 29.189 67.98 29.189 69.13Z" fill="#0C1855"/>
</svg>
